PathFileType	4	(X/Y/Z)	C:\Users\Basilio\Documents\Thesis Gigler\squatting_fais\c3dfiles\047\SLS_pre_back2\markers_experimental.trc
DataRate	CameraRate	NumFrames	NumMarkers	Units	OrigDataRate	OrigDataStartFrame	OrigNumFrames
200.000000	200.000000	4	62	mm	200.000000	485	1295
Frame#	Time	FHD			LBHD			RBHD			C7			T10			CLAV			LSHO			LUUPA			LMUPA			LDUPA			LLEP			LMEP			LRAD			LUL			LRFIN			RSHO			RUPA1			RMUPA			RDUPA			RLEP			RMEP			RUL			RUFIN			LASI			RASI			USACR			LSACR			RSACR			LTHI1			LTHI2			LTHI3			LTHI4			LLFC			LMFC			LTIB1			LTIB2			LTIB3			LTIB4			LLMAL			LMMAL			LMT1			LMT2			LMT5			RTHI			RTHI2			RTHI3			RTHI4			RLFC			RMFC			RTIB1			RTIB2			RTIB3			RTIB4			RLMAL			RHEE			RMT1			RMT2			RMT5			RMMAL			RRAD			*60			*61			
		X1	Y1	Z1	X2	Y2	Z2	X3	Y3	Z3	X4	Y4	Z4	X5	Y5	Z5	X6	Y6	Z6	X7	Y7	Z7	X8	Y8	Z8	X9	Y9	Z9	X10	Y10	Z10	X11	Y11	Z11	X12	Y12	Z12	X13	Y13	Z13	X14	Y14	Z14	X15	Y15	Z15	X16	Y16	Z16	X17	Y17	Z17	X18	Y18	Z18	X19	Y19	Z19	X20	Y20	Z20	X21	Y21	Z21	X22	Y22	Z22	X23	Y23	Z23	X24	Y24	Z24	X25	Y25	Z25	X26	Y26	Z26	X27	Y27	Z27	X28	Y28	Z28	X29	Y29	Z29	X30	Y30	Z30	X31	Y31	Z31	X32	Y32	Z32	X33	Y33	Z33	X34	Y34	Z34	X35	Y35	Z35	X36	Y36	Z36	X37	Y37	Z37	X38	Y38	Z38	X39	Y39	Z39	X40	Y40	Z40	X41	Y41	Z41	X42	Y42	Z42	X43	Y43	Z43	X44	Y44	Z44	X45	Y45	Z45	X46	Y46	Z46	X47	Y47	Z47	X48	Y48	Z48	X49	Y49	Z49	X50	Y50	Z50	X51	Y51	Z51	X52	Y52	Z52	X53	Y53	Z53	X54	Y54	Z54	X55	Y55	Z55	X56	Y56	Z56	X57	Y57	Z57	X58	Y58	Z58	X59	Y59	Z59	X60	Y60	Z60	X61	Y61	Z61	X62	Y62	Z62	

486	2.425	-4.811780452728272	1552.50439453125	-1126.170532226563	-184.712631225586	1531.362915039063	-1149.317993164063	-160.3676452636719	1537.920654296875	-1002.094604492188	-231.6774902343751	1378.307983398438	-1067.239135742188	-360.1927490234376	1106.50048828125	-1018.654663085938	-105.9016952514649	1278.442260742188	-1095.632690429688	-176.230941772461	1308.328857421875	-1247.161987304688	-147.3419647216797	1141.61181640625	-1336.15185546875	-98.69598388671878	1157.445922851563	-1336.892700195313	-93.23790740966798	1097.8740234375	-1345.216552734375	-26.17102432250977	1069.22607421875	-1350.097290039063	-46.99680328369141	1028.90625	-1270.552734375	164.2081298828125	1155.437744140625	-1201.050048828125	188.9256591796875	1083.985717773438	-1190.355102539063	254.8896484375001	1151.642456054688	-1192.584106445313	-115.847640991211	1331.528930664063	-939.6827392578127	-41.47682571411134	1185.373413085938	-834.8260498046877	-1.268598079681397	1197.414916992188	-858.963562011719	13.15879344940186	1141.741088867188	-839.9379882812502	81.14855194091798	1114.092163085938	-860.193298339844	37.69396209716798	1051.868286132813	-906.461120605469	240.8891296386719	1102.252319335938	-1069.710205078125	228.0792999267579	1183.381469726563	-1112.532592773438	-277.8195495605469	838.4947509765627	-1095.77587890625	-268.0578613281251	860.4984130859377	-870.5708007812502	-423.200164794922	977.8078613281252	-993.0947875976565	-441.1011047363282	948.9400634765627	-1018.592407226563	-434.341033935547	952.2712402343752	-960.4191894531252	-321.8736572265626	716.9455566406251	-1176.160522460938	-249.9403228759766	672.7470703125001	-1180.73046875	-210.9794158935547	699.9351196289064	-1167.744750976563	-243.2435455322266	612.5870971679689	-1183.182861328125	-172.8391265869141	463.3055725097657	-1154.540771484375	-132.8368377685547	469.104217529297	-1033.990600585938	-193.2041168212891	303.5882263183594	-1038.866455078125	-221.5396270751954	254.1921081542969	-1104.710327148438	-206.8151855468751	251.2105712890626	-1060.573486328125	-254.720199584961	195.1613311767579	-1023.747131347656	-343.2878723144532	123.6546173095703	-1061.669189453125	-318.7053527832032	142.5244293212891	-974.394226074219	-209.0694580078126	63.32745742797853	-991.1179809570315	-208.4130096435547	60.44763183593751	-1036.217651367188	-258.7561340332032	50.08290481567384	-1080.044921875	-353.4398498535157	701.0195922851564	-766.2757568359376	-311.2344970703126	649.4530639648439	-759.0720214843751	-281.2091064453126	650.4137573242189	-771.5718383789065	-333.3769226074219	568.0153198242189	-751.2340698242189	-326.0300598144532	435.8289184570314	-762.4348144531251	-322.9828796386719	404.6558532714845	-890.5444946289065	-423.2900695800782	359.6415405273438	-769.4339599609377	-513.4792480468751	415.7171325683595	-737.2697143554689	-505.6427001953126	369.5964050292969	-743.7637329101564	-553.0629882812501	347.1550598144532	-773.2891845703127	-711.7903442382814	392.067108154297	-746.9727783203126	-732.7867431640626	441.1575622558595	-809.2819824218752	-776.875671386719	234.7616882324219	-803.716735839844	-783.3791503906252	234.0143127441407	-769.0396118164065	-805.4395141601565	293.5306396484376	-715.2470703125001	-692.7905883789064	352.4613342285157	-828.8959960937502	nan	nan	nan	nan	nan	nan	nan	nan	nan	
487	2.43	-3.373588800430299	1550.8095703125	-1126.540283203125	-184.116455078125	1530.438720703125	-1149.456665039063	-158.9040985107422	1536.688110351563	-1002.667846679688	-231.0893096923829	1376.935791015625	-1067.203857421875	-359.8064880371094	1105.535034179688	-1018.507995605469	-105.4115905761719	1276.965087890625	-1095.52880859375	-176.0141143798828	1306.726928710938	-1246.88525390625	-146.9632873535157	1140.21044921875	-1336.107543945313	-98.1840744018555	1156.092895507813	-1337.010498046875	-93.03343200683595	1096.286499023438	-1345.2275390625	-26.06334114074708	1067.657348632813	-1350.09912109375	-46.37548828125001	1026.907836914063	-1270.683715820313	164.2784576416016	1153.258178710938	-1200.407836914063	188.8135223388672	1082.4248046875	-1190.410888671875	255.3230133056641	1149.637573242188	-1192.714111328125	-114.9815826416016	1330.190673828125	-940.1174926757815	-41.17628479003907	1183.98193359375	-834.6660156250002	-0.6376565694808961	1195.69970703125	-858.8540649414065	13.61795806884766	1140.427001953125	-840.1616210937502	81.7871551513672	1112.551025390625	-860.585632324219	38.0987777709961	1050.395141601563	-906.5374755859377	241.168930053711	1100.314331054688	-1069.659545898438	228.6339721679688	1181.57958984375	-1112.89892578125	-277.6421813964844	836.9065551757815	-1095.86865234375	-268.3551330566407	859.574157714844	-870.3523559570315	-423.2760620117189	977.1052856445315	-992.9529418945315	-440.8863830566407	947.7983398437502	-1018.4404296875	-435.363983154297	951.5031738281252	-960.1035766601565	-322.2438354492188	716.1185913085939	-1175.998779296875	-249.9966583251954	672.2374877929689	-1180.5673828125	-211.1254425048829	699.6178588867189	-1167.475219726563	-243.2497253417969	612.1286621093751	-1183.018798828125	-172.397689819336	463.0769348144532	-1154.181030273438	-132.6955718994141	468.9334106445314	-1033.681518554688	-192.9485931396485	303.3680419921876	-1038.694702148438	-221.0411529541016	254.0701141357422	-1104.439086914063	-206.5778045654297	251.0294952392579	-1060.377685546875	-254.718002319336	195.1753692626954	-1023.047485351563	-343.2101440429688	123.6825637817383	-1061.573608398438	-318.5965270996094	142.3770294189453	-974.315368652344	-209.2246246337891	63.27664184570314	-991.046569824219	-208.3368377685547	60.47490310668947	-1036.127319335938	-258.6627197265626	50.17379379272462	-1080.013916015625	-354.0653381347657	700.0954589843751	-766.1505737304689	-311.8140869140626	648.2955322265626	-759.0886840820314	-281.7969970703126	649.2090454101564	-771.603942871094	-333.8487854003907	567.2744140625001	-751.2323608398439	-327.0928344726563	434.7669982910157	-762.4923706054689	-323.8923950195313	403.333465576172	-890.6724243164065	-424.2517395019532	358.8388061523438	-768.3140258789065	-514.3664550781251	414.8728332519532	-737.0072021484376	-506.8047790527345	368.9113769531251	-743.4403076171876	-554.4514160156251	346.5537719726563	-772.089050292969	-713.2200317382814	391.6155395507814	-745.8026123046876	-733.7630615234376	440.9227294921876	-808.9853515625002	-777.330017089844	235.5043182373047	-803.7005615234377	-778.8922119140627	235.2885284423829	-756.6828613281251	-806.7327880859377	293.1976623535157	-714.5876464843751	-693.9978027343751	351.2709045410157	-827.625915527344	nan	nan	nan	nan	nan	nan	nan	nan	nan	
488	2.435	-2.69741702079773	1549.322387695313	-1126.66015625	-182.6795806884766	1528.492553710938	-1149.4228515625	-158.1561279296875	1535.125854492188	-1002.761047363281	-229.9431915283204	1375.741333007813	-1067.276489257813	-359.8278503417969	1104.696044921875	-1018.394653320313	-104.9093780517578	1275.492797851563	-1095.52197265625	-175.3401641845703	1305.44873046875	-1247.050903320313	-146.5709381103516	1138.695434570313	-1336.10546875	-97.44136810302737	1154.114624023438	-1336.784790039063	-92.65810394287111	1094.692260742188	-1345.065307617188	-25.80512428283692	1065.8642578125	-1350.041870117188	-46.13434219360352	1025.210083007813	-1270.654907226563	164.594970703125	1151.482177734375	-1200.414916992188	189.5747528076172	1080.19287109375	-1190.453735351563	255.6484680175782	1147.5986328125	-1192.841552734375	-114.2455978393555	1328.499633789063	-939.7047119140627	-40.28849411010743	1182.380249023438	-834.915710449219	-0.2333404123783112	1194.424560546875	-859.2242431640627	14.16382789611817	1138.741577148438	-840.2166748046877	82.05349731445314	1110.880126953125	-860.5053710937502	38.54417037963868	1048.532104492188	-906.7313232421877	241.6912536621094	1098.682739257813	-1070.00830078125	228.7867279052735	1179.466674804688	-1112.837890625	-277.9188537597657	835.9442138671877	-1095.666259765625	-268.5296936035157	858.5811157226565	-870.4093017578127	-423.4314575195314	976.1425781250002	-992.8237915039065	-440.9918823242189	946.981384277344	-1018.336608886719	-436.7438354492189	951.2551269531252	-959.4224853515627	-322.4245300292969	715.4359741210939	-1175.808471679688	-250.0279541015626	671.7602539062501	-1180.285766601563	-211.3275146484376	699.2931518554689	-1167.173095703125	-243.1696014404297	611.6554565429689	-1182.616943359375	-172.0357208251953	462.8507080078126	-1153.817626953125	-132.6526947021485	468.6765747070314	-1033.179443359375	-192.8369750976563	303.1559753417969	-1038.096923828125	-222.1593780517579	252.8880310058594	-1103.733032226563	-206.3104858398438	250.7238006591797	-1060.331909179688	-254.6999053955079	194.9656066894532	-1022.807739257813	-343.1389465332032	123.6790466308594	-1061.50146484375	-318.6457824707032	142.4279937744141	-974.0827636718752	-209.1452026367188	63.24693679809572	-990.9234619140627	-208.3621520996094	60.45895767211915	-1036.202514648438	-258.6967163085938	50.26350021362306	-1079.8984375	-354.4099731445313	699.0780639648439	-766.0573120117189	-312.3927307128907	647.4262084960939	-759.1466674804689	-282.4411926269532	648.3305664062501	-771.1943969726565	-334.5343017578126	566.3010864257814	-751.3984375000001	-328.0362243652344	434.0062255859376	-762.3988647460939	-325.1018066406251	402.3310546875001	-890.7683105468752	-425.2590332031251	357.9625244140626	-768.7248535156252	-515.5460815429689	414.1677246093751	-736.4674682617189	-507.8161926269532	368.1343688964844	-743.4310913085939	-555.4456787109376	345.8743286132813	-771.977722167969	-713.8877563476564	391.3296813964845	-746.1546630859376	-734.7335815429689	440.2933044433595	-808.6648559570315	-779.1385498046877	234.8964996337891	-803.4612426757815	-785.6268310546877	233.3386230468751	-767.7162475585939	-807.7353515625002	293.0934448242188	-714.5050048828126	-694.9921875000001	350.8782958984376	-827.3623046875002	nan	nan	nan	nan	nan	nan	nan	nan	nan	
489	2.44	-1.887492179870606	1547.810302734375	-1126.636108398438	-181.8304290771485	1527.057373046875	-1149.498657226563	-157.062744140625	1533.567749023438	-1002.447692871094	-229.0086975097657	1374.33203125	-1067.435302734375	-359.6061401367188	1103.763671875	-1018.216735839844	-103.9188995361328	1273.681030273438	-1095.475830078125	-174.5381469726563	1303.9169921875	-1246.89697265625	-146.1726989746094	1137.130493164063	-1336.157958984375	-97.53713226318362	1152.809326171875	-1336.721557617188	-92.53538513183595	1093.146484375	-1344.990600585938	-25.44304847717286	1064.073120117188	-1350.066650390625	-46.25180435180665	1024.238891601563	-1270.349365234375	165.1851196289063	1149.549560546875	-1200.837890625	189.9192810058594	1078.342163085938	-1190.657836914063	256.1603088378907	1145.7421875	-1193.031005859375	-113.3020095825196	1327.655029296875	-940.4029541015627	-39.7058448791504	1181.124145507813	-834.798034667969	0.5387989878654481	1192.942260742188	-859.604187011719	14.78419494628907	1137.394287109375	-840.3467407226565	82.6696014404297	1109.128540039063	-860.7192993164065	38.99960708618165	1047.116821289063	-906.861511230469	241.9750976562501	1096.805053710938	-1069.937255859375	229.3402252197266	1177.797607421875	-1112.954467773438	-278.5672607421876	835.5297851562502	-1095.3603515625	-268.9894104003907	857.3406982421877	-869.9104614257815	-423.5793457031251	975.4456176757815	-992.6777954101565	-441.667694091797	947.0024414062502	-1017.964904785156	-434.8413085937501	950.160583496094	-959.9578857421877	-322.7121582031251	714.8262939453126	-1175.571044921875	-250.1979980468751	671.3858642578126	-1179.890380859375	-211.7406463623047	698.8143920898439	-1166.59912109375	-243.1051483154297	611.1739501953126	-1182.250244140625	-171.5491180419922	462.5649719238282	-1153.49560546875	-132.3521728515625	468.4780273437501	-1032.868041992188	-192.4728698730469	303.1518554687501	-1037.712646484375	-221.7616424560547	252.8665771484376	-1103.413696289063	-206.1364288330079	250.5395050048829	-1060.042846679688	-254.4691925048829	194.2542266845704	-1023.010864257813	-343.0969848632813	123.6539993286133	-1061.386474609375	-318.4977111816407	142.0536041259766	-974.022644042969	-209.3044738769532	63.13876724243165	-990.7399902343752	-208.2618865966797	60.4841766357422	-1036.098999023438	-258.6875000000001	50.3349952697754	-1079.81591796875	-354.9292602539063	698.1535644531251	-765.9656982421876	-313.0460205078126	646.3329467773439	-759.0774536132814	-283.0165405273438	647.1106567382814	-771.581970214844	-335.4597778320313	565.3494873046876	-751.2490844726564	-329.0995483398438	432.8358154296876	-762.2161254882814	-326.2792358398438	401.9561157226564	-890.5950927734377	-426.294403076172	357.2971496582032	-768.8063964843752	-516.4065551757814	413.541717529297	-736.5989990234376	-508.873504638672	367.5012817382813	-743.3205566406251	-556.5324707031251	345.1744384765626	-771.8234863281252	-715.1057739257814	390.8379211425782	-745.3079223632814	-735.6582641601564	439.902801513672	-808.4077758789065	-780.256530761719	234.298812866211	-803.075378417969	-786.9799804687502	233.0319061279297	-768.3232421875002	-808.8403320312502	292.9702758789063	-714.0690917968751	-696.4253540039064	350.5967712402344	-827.1182250976565	nan	nan	nan	nan	nan	nan	nan	nan	nan	
